
<svg xmlns="http://www.w3.org/2000/svg" width="1280" height="129">
  <path style="fill:#ffffff; stroke:none;" d="M 0 129 L 1280 129 L 1280 45 C 1267 49 1253.07 52.9443 1240 56.5756 C 1216.06 63.23 1191.48 68.4964 1167 72.75 C 1069.49 89.6919 968.512 94.2431 870 84.8302 C 815.662 79.6382 761.389 72.3026 708 60.5756 C 653.487 48.6018 599.897 32.8973 545 22.6111 C 464.31 7.492 382.981 0 301 0 C 224.787 0 148.616 7.6838 74 23.7901 C 55.8403 27.71 37.7414 32.1216 20 38 C 9 42 8 42 0 45 C 0 50 0 61.5864 0 67 L 0 129 z"/>
</svg>
